<svg id="wave" style="transform:rotate(0deg); transition: 0.3s" viewBox="0 0 1440 280" version="1.1" xmlns="http://www.w3.org/2000/svg"><defs><linearGradient id="sw-gradient-0" x1="0" x2="0" y1="1" y2="0"><stop stop-color="rgba(0, 97, 255, 1)" offset="0%"></stop><stop stop-color="rgba(102, 160, 255, 1)" offset="100%"></stop></linearGradient></defs><path style="transform:translate(0, 0px); opacity:1" fill="url(#sw-gradient-0)" d="M0,198L40,209C80,220,160,242,240,247.5C320,253,400,242,480,236.5C560,231,640,231,720,225.5C800,220,880,209,960,176C1040,143,1120,88,1200,66C1280,44,1360,55,1440,93.5C1520,132,1600,198,1680,198C1760,198,1840,132,1920,99C2000,66,2080,66,2160,82.5C2240,99,2320,132,2400,132C2480,132,2560,99,2640,115.5C2720,132,2800,198,2880,187C2960,176,3040,88,3120,88C3200,88,3280,176,3360,225.5C3440,275,3520,286,3600,264C3680,242,3760,187,3840,143C3920,99,4000,66,4080,60.5C4160,55,4240,77,4320,110C4400,143,4480,187,4560,220C4640,253,4720,275,4800,269.5C4880,264,4960,231,5040,203.5C5120,176,5200,154,5280,170.5C5360,187,5440,242,5520,220C5600,198,5680,99,5720,49.5L5760,0L5760,330L5720,330C5680,330,5600,330,5520,330C5440,330,5360,330,5280,330C5200,330,5120,330,5040,330C4960,330,4880,330,4800,330C4720,330,4640,330,4560,330C4480,330,4400,330,4320,330C4240,330,4160,330,4080,330C4000,330,3920,330,3840,330C3760,330,3680,330,3600,330C3520,330,3440,330,3360,330C3280,330,3200,330,3120,330C3040,330,2960,330,2880,330C2800,330,2720,330,2640,330C2560,330,2480,330,2400,330C2320,330,2240,330,2160,330C2080,330,2000,330,1920,330C1840,330,1760,330,1680,330C1600,330,1520,330,1440,330C1360,330,1280,330,1200,330C1120,330,1040,330,960,330C880,330,800,330,720,330C640,330,560,330,480,330C400,330,320,330,240,330C160,330,80,330,40,330L0,330Z"></path><defs><linearGradient id="sw-gradient-1" x1="0" x2="0" y1="1" y2="0"><stop stop-color="rgba(79.293, 139.999, 239.433, 1)" offset="0%"></stop><stop stop-color="rgba(102, 160, 255, 1)" offset="100%"></stop></linearGradient></defs><path style="transform:translate(0, 50px); opacity:0.9" fill="url(#sw-gradient-1)" d="M0,0L40,33C80,66,160,132,240,137.5C320,143,400,88,480,88C560,88,640,143,720,159.5C800,176,880,154,960,154C1040,154,1120,176,1200,154C1280,132,1360,66,1440,55C1520,44,1600,88,1680,104.5C1760,121,1840,110,1920,110C2000,110,2080,121,2160,121C2240,121,2320,110,2400,137.5C2480,165,2560,231,2640,236.5C2720,242,2800,187,2880,176C2960,165,3040,198,3120,192.5C3200,187,3280,143,3360,110C3440,77,3520,55,3600,44C3680,33,3760,33,3840,55C3920,77,4000,121,4080,143C4160,165,4240,165,4320,137.5C4400,110,4480,55,4560,49.5C4640,44,4720,88,4800,137.5C4880,187,4960,242,5040,269.5C5120,297,5200,297,5280,258.5C5360,220,5440,143,5520,126.5C5600,110,5680,154,5720,176L5760,198L5760,330L5720,330C5680,330,5600,330,5520,330C5440,330,5360,330,5280,330C5200,330,5120,330,5040,330C4960,330,4880,330,4800,330C4720,330,4640,330,4560,330C4480,330,4400,330,4320,330C4240,330,4160,330,4080,330C4000,330,3920,330,3840,330C3760,330,3680,330,3600,330C3520,330,3440,330,3360,330C3280,330,3200,330,3120,330C3040,330,2960,330,2880,330C2800,330,2720,330,2640,330C2560,330,2480,330,2400,330C2320,330,2240,330,2160,330C2080,330,2000,330,1920,330C1840,330,1760,330,1680,330C1600,330,1520,330,1440,330C1360,330,1280,330,1200,330C1120,330,1040,330,960,330C880,330,800,330,720,330C640,330,560,330,480,330C400,330,320,330,240,330C160,330,80,330,40,330L0,330Z"></path><defs><linearGradient id="sw-gradient-2" x1="0" x2="0" y1="1" y2="0"><stop stop-color="rgba(0, 97, 255, 1)" offset="0%"></stop><stop stop-color="rgba(102, 160, 255, 1)" offset="100%"></stop></linearGradient></defs><path style="transform:translate(0, 100px); opacity:0.8" fill="url(#sw-gradient-2)" d="M0,99L40,93.5C80,88,160,77,240,93.5C320,110,400,154,480,187C560,220,640,242,720,220C800,198,880,132,960,121C1040,110,1120,154,1200,148.5C1280,143,1360,88,1440,66C1520,44,1600,55,1680,77C1760,99,1840,132,1920,159.5C2000,187,2080,209,2160,187C2240,165,2320,99,2400,66C2480,33,2560,33,2640,38.5C2720,44,2800,55,2880,99C2960,143,3040,220,3120,236.5C3200,253,3280,209,3360,170.5C3440,132,3520,99,3600,93.5C3680,88,3760,110,3840,115.5C3920,121,4000,110,4080,132C4160,154,4240,209,4320,214.5C4400,220,4480,176,4560,137.5C4640,99,4720,66,4800,44C4880,22,4960,11,5040,38.5C5120,66,5200,132,5280,143C5360,154,5440,110,5520,110C5600,110,5680,154,5720,176L5760,198L5760,330L5720,330C5680,330,5600,330,5520,330C5440,330,5360,330,5280,330C5200,330,5120,330,5040,330C4960,330,4880,330,4800,330C4720,330,4640,330,4560,330C4480,330,4400,330,4320,330C4240,330,4160,330,4080,330C4000,330,3920,330,3840,330C3760,330,3680,330,3600,330C3520,330,3440,330,3360,330C3280,330,3200,330,3120,330C3040,330,2960,330,2880,330C2800,330,2720,330,2640,330C2560,330,2480,330,2400,330C2320,330,2240,330,2160,330C2080,330,2000,330,1920,330C1840,330,1760,330,1680,330C1600,330,1520,330,1440,330C1360,330,1280,330,1200,330C1120,330,1040,330,960,330C880,330,800,330,720,330C640,330,560,330,480,330C400,330,320,330,240,330C160,330,80,330,40,330L0,330Z"></path></svg>